. 
  
http://www.torrenting.com/        :     Greatest Movie Tracker on The Net!!!
 
http://www.Torrenting.com          :     Once & For all ;)


               www . Torrenting . Com 

(((((((((((((= Enjoy No RAR releases =))))))))))))))))))))


...................................NFO:....................................

.[img]http://img266.imageshack.us/img266/7587/flypaperposter02.jpg[/img]

[color=blue][size=5][b]Flypaper.2011.DVDRip.XVID.AC3.HQ.Hive-CM8[/b][/size][/color]


[b]Thx Hive


CM8 Doing It Right The First Time :D


Source: DVD-R Visualize
thx

Encode:

finally a decent version.
DVD was ok, did the usual cleanup,sharpness,brightness,rgb,denoise
got nice
enjoy


Video: 720x304 @bitrate 1800 2pass
Audio: English AC3 5.1 @448
Sample: yes included[/b]


[url]http://www.imdb.com/title/tt1541160/[/url]


General
Complete name                    : Flypaper.2011.DVDRip.XVID.AC3.HQ.Hive-CM8.avi
Format                           : AVI
Format/Info                      : Audio Video Interleave
File size                        : 1.32 GiB
Duration                         : 1h 23mn
Overall bit rate                 : 2 257 Kbps
Writing application              : Nandub v1.0rc2
Writing library                  : Nandub build 1853/release

Video
ID                               : 0
Format                           : MPEG-4 Visual
Format profile                   : Advanced Simple@L5
Format settings, BVOP            : 2
Format settings, QPel            : Yes
Format settings, GMC             : No warppoints
Format settings, Matrix          : Default (H.263)
Muxing mode                      : Packed bitstream
Codec ID                         : XVID
Codec ID/Hint                    : XviD
Duration                         : 1h 23mn
Bit rate                         : 1 800 Kbps
Width                            : 720 pixels
Height                           : 304 pixels
Display aspect ratio             : 2.35:1
Frame rate                       : 25.000 fps
Color space                      : YUV
Chroma subsampling               : 4:2:0
Bit depth                        : 8 bits
Scan type                        : Progressive
Compression mode                 : Lossy
Bits/(Pixel*Frame)               : 0.329
Stream size                      : 1.05 GiB (80%)
Writing library                  : XviD 1.2.1 (UTC 2008-12-04)

Audio
ID                               : 1
Format                           : AC-3
Format/Info                      : Audio Coding 3
Mode extension                   : CM (complete main)
Codec ID                         : 2000
Duration                         : 1h 23mn
Bit rate mode                    : Constant
Bit rate                         : 448 Kbps
Channel(s)                       : 6 channels
Channel positions                : Front: L C R, Side: L R, LFE
Sampling rate                    : 48.0 KHz
Bit depth                        : 16 bits
Compression mode                 : Lossy
Stream size                      : 268 MiB (20%)
Alignment                        : Split accross interleaves
Interleave, duration             : 40 ms (1.00 video frame)
Interleave, preload duration     : 500 ms


A man caught in the middle of two simultaneous robberies at the same bank desperately 
tries to protect the teller with whom he's secretly in love. 


Ashley Judd	... 	Kaitlin
Patrick Dempsey	... 	Tripp
Octavia Spencer	... 	Madge Wiggins
Tim Blake Nelson	... 	Peanut Butter
Jeffrey Tambor	... 	Gordon Blythe


[img]http://img502.imageshack.us/img502/8417/63196575.png[/img]
[img]http://img849.imageshack.us/img849/552/93898834.png[/img]
[img]http://img703.imageshack.us/img703/9840/flffflll.png[/img]
[img]http://img199.imageshack.us/img199/1023/flffffflllll.png[/img]
[img]http://img846.imageshack.us/img846/1579/flffffllll.png[/img]
[img]http://img805.imageshack.us/img805/7559/flfflfffflflllll.png[/img]
[img]http://img199.imageshack.us/img199/3514/flffll.png[/img]
[img]http://img17.imageshack.us/img17/9127/flffffflflllll.png[/img]




Greetz

ViSiON,SiC,SANTi,3LT0N,YanKeeS,MAGNET,THC,T0XiC,LKRG,FANTASIA-PLAY,FANTASIA-M,BHRG,
D2U,WBZ,FLAWL3SS,NOVA,Vik,Rapeseed,SAFC,goldadvance,MEMORY100,scumbag,KaN1vE,Unevano,Pinnz,
Mr Hive,Wayne,cedrict wink,and all P2P groups


LOOKING FOR ANYTHING YOU WANT TO LOOK AND SOUND BETTER



CM8@hushmail.com